<?xml version="1.0" encoding="utf-8"?>
<!-- Generator: Adobe Illustrator 24.1.2, SVG Export Plug-In . SVG Version: 6.00 Build 0)  -->
<svg version="1.1" id="レイヤー_1" xmlns="http://www.w3.org/2000/svg" xmlns:xlink="http://www.w3.org/1999/xlink" x="0px"
	 y="0px" viewBox="0 0 1021 1021" style="enable-background:new 0 0 1021 1021;" xml:space="preserve">
<style type="text/css">
	.st0{fill:#FEFEFE;}
	.st1{fill:#1DB3C8;}
	.st2{fill:#FDFEFE;}
</style>
<g>
	<path class="st0" d="M510,1020.9c-168.5,0-336.9,0-505.4,0.1c-3.7,0-4.6-0.8-4.6-4.6C0.1,679.1,0.1,341.9,0,4.6C0,0.8,0.8,0,4.6,0
		c337.3,0.1,674.5,0.1,1011.8,0c3.7,0,4.6,0.8,4.6,4.6c-0.1,337.3-0.1,674.5,0,1011.8c0,3.7-0.8,4.6-4.6,4.6
		C847.6,1020.9,678.8,1020.9,510,1020.9z M717,920.9c81,0,162,0,242.9,0c1.8,0,3.7,0,5.5-0.1c16.7-1,28.2-12,28.3-27.1
		c0.4-103.8,0.8-207.6,1.1-311.4c0.1-14.6-7.4-24.1-21.8-27.5c-8.6-2-17.3-0.8-25.9-0.9c-3.2-0.1-4.3-0.8-4.2-4.2
		c0.2-12.3,0-24.7,0.1-37c0-5.6-1.7-10.5-5.2-14.7c-7-8.3-16.2-11.1-26.7-11.1c-144.8,0-289.6,0-434.4,0c-17.3,0-33.8,3.5-48.9,12
		c-25.9,14.5-40.8,35.5-40.7,66.4c0.3,93.6,0.1,187.3,0.1,280.9c0,17.5,6.3,32.6,18.2,45.2c19.3,20.5,43.7,29.2,71.3,29.3
		C556.7,921,636.8,920.9,717,920.9z M285.1,686C285.1,686,285.1,686,285.1,686c26.2,0.1,52.3,0,78.5,0.1c3.4,0,4.6-0.8,4.5-4.4
		c-0.3-9.5-0.4-19,0-28.5c0.2-4.8-0.8-6.4-6.1-6.4c-47.8,0.2-95.6,0.1-143.5,0.2c-8.9,0-17.7-0.7-26.3-2.6
		C140,633,103.1,592.2,96.8,538.9c-5.9-50.1,22.1-100.2,68-121.9c3.3-1.5,4.2-0.7,5.1,2.4c3,10.2,6.7,20.2,12.5,29.3
		c6.1,9.4,17.2,12.1,26.6,6.6c9.2-5.4,12.2-16.8,6.9-26.6c-2.2-4.1-4.3-8.2-6-12.6c-11.4-29.2-11.4-58.9-4-88.8
		c22.5-91.4,110.7-148,202.9-129.1c60.2,12.4,102.1,48.4,126.5,104.8c1.5,3.4,0.8,4.6-2.8,5.4c-7.3,1.7-14.5,3.8-21.7,5.8
		c-11.6,3.2-17.8,13.4-14.7,24.4c2.9,10.6,13.5,16.4,24.8,13.4c12.8-3.5,25.7-6.9,38.5-10.6c22.5-6.4,45.2-8,68.2-4
		c68.8,11.8,119.9,64.8,129.4,134c0.4,3.1,1.5,3.8,4.3,3.7c6.8-0.2,13.7,0.1,20.5-0.1c4.8-0.1,11.4,2.2,13.9-1
		c2.6-3.4,0-9.6-0.9-14.5c-9.8-54.8-37.4-98.6-83.5-129.9c-38.9-26.4-82.2-37-129-32.2c-6,0.6-7.8-0.9-9.8-6.1
		c-12.4-32.7-31.7-60.8-58.3-83.4c-53.3-45.1-114.6-62-183-47.7c-68.4,14.3-117.9,54.3-148.7,116.9c-14.5,29.4-21.1,60.9-20.2,93.8
		c0.1,4-1.1,5.9-4.9,7.1c-4.1,1.3-8,3.2-11.9,5.2c-64.1,32.3-98.5,102-85.4,173.1c13.6,73.7,78.7,128.7,153.7,129.7
		C237.5,686.2,261.3,686,285.1,686z"/>
	<path class="st1" d="M717,920.9c-80.1,0-160.3,0.1-240.4-0.1c-27.6-0.1-52.1-8.7-71.3-29.3c-11.9-12.6-18.2-27.7-18.2-45.2
		c0-93.6,0.2-187.3-0.1-280.9c-0.1-30.9,14.8-52,40.7-66.4c15.1-8.4,31.6-12,48.9-12c144.8,0,289.6,0,434.4,0
		c10.5,0,19.7,2.8,26.7,11.1c3.6,4.2,5.3,9.1,5.2,14.7c-0.1,12.3,0.1,24.7-0.1,37c-0.1,3.4,1,4.1,4.2,4.2c8.6,0.2,17.3-1.1,25.9,0.9
		c14.3,3.4,21.8,12.8,21.8,27.5c-0.4,103.8-0.7,207.6-1.1,311.4c-0.1,15.1-11.5,26.1-28.3,27.1c-1.8,0.1-3.7,0.1-5.5,0.1
		C878.9,920.9,797.9,920.9,717,920.9z M709.6,887.3c79.3,0,158.6,0,237.9,0.1c4.2,0,5.7-0.7,5.7-5.4c0-32.5,0.4-65,0.5-97.4
		c0.2-63.8,0.2-127.6,0.6-191.4c0-5.1-1.2-6.2-6.2-6.2c-154.1,0.1-308.2,0.1-462.3,0.1c-1.2,0-2.3-0.1-3.5,0
		c-3.2,0.4-4.3-0.7-4.2-4.1c0.2-7.7,0.4-15.3,0-23c-0.3-4.9,0.9-6.3,6.1-6.3c104.8,0.2,209.6,0.1,314.4,0.1
		c33.2,0,66.3-0.1,99.5,0.1c3.7,0,5-0.9,4.9-4.7c-0.3-7.5-0.1-15-0.1-22.5c0-6.4,0-6.4-6.5-6.4c-138.3,0-276.6,0-414.9,0
		c-4.5,0-9,0.2-13.5,0.8c-18.3,2.5-40.7,15.3-40.7,42.8c0.2,93.5,0.1,186.9,0.1,280.4c0,12.2,4.2,22.4,13.5,30.4
		c10.6,9.1,23.1,12.6,36.9,12.6C555,887.3,632.3,887.3,709.6,887.3z"/>
	<path class="st1" d="M285.1,686c-23.8,0-47.7,0.3-71.5,0c-75-1-140.1-56-153.7-129.7c-13.1-71,21.2-140.7,85.4-173.1
		c3.9-1.9,7.8-3.8,11.9-5.2c3.8-1.2,5-3.1,4.9-7.1c-0.8-32.9,5.8-64.3,20.2-93.8c30.8-62.6,80.3-102.6,148.7-116.9
		c68.4-14.3,129.7,2.6,183,47.7c26.7,22.6,45.9,50.8,58.3,83.4c2,5.2,3.8,6.7,9.8,6.1c46.8-4.8,90.1,5.8,129,32.2
		c46.1,31.3,73.6,75,83.5,129.9c0.9,4.9,3.6,11.1,0.9,14.5c-2.5,3.2-9.1,0.8-13.9,1c-6.8,0.2-13.7-0.1-20.5,0.1
		c-2.8,0.1-3.9-0.6-4.3-3.7c-9.5-69.2-60.6-122.2-129.4-134c-23-3.9-45.8-2.3-68.2,4c-12.8,3.6-25.6,7.1-38.5,10.6
		c-11.2,3-21.8-2.7-24.8-13.4c-3-11,3.2-21.2,14.7-24.4c7.2-2,14.4-4.2,21.7-5.8c3.6-0.8,4.2-2,2.8-5.4
		c-24.4-56.4-66.3-92.4-126.5-104.8c-92.2-18.9-180.4,37.7-202.9,129.1c-7.4,29.9-7.4,59.7,4,88.8c1.7,4.4,3.8,8.5,6,12.6
		c5.3,9.8,2.3,21.1-6.9,26.6c-9.4,5.5-20.5,2.9-26.6-6.6c-5.8-9-9.5-19-12.5-29.3c-0.9-3.1-1.8-3.9-5.1-2.4
		c-45.9,21.6-73.9,71.8-68,121.9c6.3,53.2,43.1,94.1,95.4,105.6c8.6,1.9,17.4,2.6,26.3,2.6c47.8-0.1,95.6,0.1,143.5-0.2
		c5.3,0,6.3,1.5,6.1,6.4c-0.4,9.5-0.3,19,0,28.5c0.1,3.6-1.1,4.4-4.5,4.4C337.5,686,311.3,686,285.1,686
		C285.1,686,285.1,686,285.1,686z"/>
	<path class="st2" d="M883.8,750.2c-5.6,0-11.3,0.1-16.9,0c-2.4,0-3.7,0.4-3.7,3.2c0.1,9.1,0.1,18.3,0,27.4c0,2.5,1.2,3,3.4,3
		c11.3-0.1,22.6-0.1,33.9,0c2.6,0,3.5-0.9,3.4-3.5c-0.1-8.8-0.2-17.6,0-26.4c0.1-3.3-1.3-3.9-4.1-3.8
		C894.4,750.3,889.1,750.2,883.8,750.2z"/>
	<path class="st1" d="M883.8,750.2c5.3,0,10.6,0.1,16,0c2.8-0.1,4.2,0.5,4.1,3.8c-0.2,8.8-0.1,17.6,0,26.4c0,2.6-0.8,3.5-3.4,3.5
		c-11.3-0.1-22.6-0.1-33.9,0c-2.2,0-3.4-0.5-3.4-3c0.1-9.1,0.1-18.3,0-27.4c0-2.8,1.3-3.3,3.7-3.2
		C872.5,750.3,878.1,750.2,883.8,750.2z"/>
</g>
</svg>
