<?xml version="1.0" encoding="utf-8"?>
<!-- Generator: Adobe Illustrator 24.1.2, SVG Export Plug-In . SVG Version: 6.00 Build 0)  -->
<svg version="1.1" id="レイヤー_1" xmlns="http://www.w3.org/2000/svg" xmlns:xlink="http://www.w3.org/1999/xlink" x="0px"
	 y="0px" viewBox="0 0 614.4 581.3" style="enable-background:new 0 0 614.4 581.3;" xml:space="preserve">
<style type="text/css">
	.st0{fill:#1EB3C8;}
</style>
<g>
	<path class="st0" d="M354.2,102.6c-72.2,0-144.4,0-216.6,0.1c-4.5,0-6-1-5.8-5.6c0.4-8.3,0.2-16.6,0.1-24.9c-0.1-2.8,0.8-4,3.7-3.6
		c1.3,0.2,2.7,0,4,0c127.6,0,255.2,0,382.8,0.1c4.7,0,6.3-0.9,6-5.9c-0.5-8.3-0.2-16.6-0.1-24.9c0-2.6-0.8-3.7-3.4-3.4
		c-0.8,0.1-1.7,0-2.5,0c-130.3,0-260.5,0-390.8,0c-14.2,0-26.4,4.3-36.2,14.8c-7.1,7.6-10.6,16.6-10.5,27.2
		c0.1,64.4,0,128.8,0.1,193.2c0,4.3-0.7,6.1-5.6,5.9c-9.5-0.4-19-0.2-28.4-0.1c-3,0.1-4-0.6-4-3.8c0.1-66.2-0.5-132.4,0.4-198.6
		c0.4-30.5,18.2-51.2,44.8-64.4C104.5,2.5,117.7,0,131.3,0c134.6,0,269.2,0,403.7,0c12.3,0,22.5,4,28.5,15.6
		c1.9,3.6,2.5,7.5,2.5,11.6c0,12,0.2,24-0.1,35.9c-0.2,4.8,1.5,5.9,5.8,5.6c5.3-0.3,10.6-0.2,16,0c13.4,0.3,26.7,11.4,26.6,27.3
		c-0.5,76.4-0.5,152.7-0.7,229.1c-0.1,30.1-1,60.2-0.3,90.3c0.4,18.8-14.1,29.5-29.8,29.5c-39.6-0.1-79.2,0-118.8,0
		c-47.6,0-95.2,0-142.7,0c-7.5,0-6.4,0.9-6.5-6.7c-0.1-7-0.1-14,0-21c0.1-7.8-1.1-6.7,7-6.7c79.7,0,159.4,0,239-0.1
		c4.4,0,10.1,2,12.9-1c2.6-2.7,0.8-8.2,0.8-12.5c0.4-96,0.7-192,1.1-288c0-5-1.1-6.3-6.2-6.3C498.2,102.7,426.2,102.6,354.2,102.6z"
		/>
	<path class="st0" d="M143.7,293.6c80.1,0,144,64,143.9,144.2c0,79.9-64.2,143.5-144.7,143.5c-79.4,0-143-64.4-143-144.7
		C0,357.6,64.4,293.6,143.7,293.6z M143.9,322.4c-64.3-0.3-114.4,50.4-115.3,115.1c-0.8,62.1,51.9,115.1,114.9,115.3
		c62.6,0.2,116-52.3,115.6-115.2C258.6,373.5,208.6,322.7,143.9,322.4z"/>
	<path class="st0" d="M509.5,230.7c5.1,0,10.3,0.1,15.4,0c2.6-0.1,3.4,0.9,3.4,3.5c-0.1,9.3-0.1,18.6,0,27.9c0,2.3-0.7,3.2-3.1,3.2
		c-10.6-0.1-21.2-0.1-31.8,0c-2.1,0-2.9-0.8-2.9-2.9c0.1-9.5,0.1-18.9,0-28.4c0-2.4,0.8-3.2,3.2-3.2
		C498.9,230.8,504.2,230.7,509.5,230.7z"/>
	<path class="st0" d="M158,398.7c0,6.6,0.2,13.3-0.1,19.9c-0.1,3.6,1.2,4.5,4.6,4.5c13-0.2,25.9,0,38.9-0.1c6.2,0,10.6,2.9,13,8.3
		c2.5,5.6,1.6,11.1-2.4,15.9c-2.7,3.3-6.5,4.4-10.7,4.4c-12.8-0.1-25.6,0.1-38.4-0.1c-3.8-0.1-5.2,0.9-5.1,5
		c0.3,12.8,0,25.6,0.1,38.4c0,6-2.6,10.4-7.7,12.9c-5.3,2.6-10.6,2.1-15.5-1.4c-3.9-2.8-5.3-6.6-5.2-11.2c0-12.8-0.2-25.6,0.1-38.4
		c0.1-4.3-1.3-5.3-5.4-5.2c-12.5,0.2-24.9,0.1-37.4,0.1c-9.1,0-15-5.8-15-14.3c0-8.8,5.6-14.1,15-14.2c12.6,0,25.3-0.1,37.9,0.1
		c3.7,0.1,4.9-0.9,4.8-4.7c-0.2-13,0-25.9-0.1-38.9c0-5.8,2.6-10,7.5-12.6c5-2.6,10.3-2.3,15.1,0.9c4,2.6,5.8,6.3,5.8,10.9
		C158.1,385.4,158,392.1,158,398.7z"/>
</g>
</svg>
