<svg width="249" height="70" viewBox="0 0 249 70" fill="none" xmlns="http://www.w3.org/2000/svg">
<path d="M0 35C0 15.67 15.67 0 35 0H214C233.33 0 249 15.67 249 35C249 54.33 233.33 70 214 70H35C15.67 70 0 54.33 0 35Z" fill="#1CB3C8"/>
<path d="M84.7 21.528L85.852 25.704C88.984 25.632 94.276 25.488 98.38 24.912C101.152 24.516 104.032 24.048 106.264 23.472C106.84 23.328 107.812 23.076 109.036 22.752L106.048 18.792C104.248 19.656 100.612 20.448 96.976 20.988C93.016 21.564 87.472 21.6 84.7 21.528ZM86.248 46.368L90.856 49.464C97.804 45.288 100.18 39.132 100.18 31.86C100.18 31.86 100.18 27.072 100.18 23.976L95.464 24.516C95.464 29.628 95.464 31.968 95.464 31.968C95.464 38.7 92.62 43.452 86.248 46.368ZM82 30.168V34.812C82.936 34.74 84.268 34.668 85.384 34.668C87.508 34.668 107.092 34.668 109.36 34.668C110.368 34.668 111.556 34.74 112.528 34.812V30.168C111.736 30.24 110.044 30.348 109.288 30.348C106.876 30.348 87.616 30.348 85.348 30.348C84.196 30.348 83.008 30.24 82 30.168Z" fill="white"/>
<path d="M129.276 24.516L124.416 25.668C124.812 26.424 125.208 27.324 125.46 28.224C126.612 31.968 129.888 44.82 130.788 47.952C131.076 48.96 131.292 50.148 131.436 51.12L136.296 49.896C136.044 49.176 135.54 47.592 135.36 46.944C134.46 43.956 131.076 31.572 129.852 27.252C129.636 26.316 129.384 25.38 129.276 24.516ZM146.556 30.096L143.64 28.044C143.172 28.26 142.452 28.476 141.84 28.62C139.284 29.196 124.884 31.932 122.94 32.22C121.752 32.436 120.744 32.544 119.628 32.652L120.744 36.936C123.696 36.288 138.348 33.228 140.22 32.904C139.248 34.668 136.764 37.692 134.892 39.348L138.888 41.328C141.408 38.664 145.008 33.228 146.556 30.096Z" fill="white"/>
<path d="M154.152 30.708V36.396C155.52 36.288 157.932 36.18 159.948 36.18C164.196 36.18 176.04 36.18 179.316 36.18C180.828 36.18 182.664 36.36 183.528 36.396V30.708C182.556 30.78 180.972 30.96 179.28 30.96C176.076 30.96 164.196 30.96 159.948 30.96C158.076 30.96 155.484 30.816 154.152 30.708Z" fill="white"/>
<path d="M212.417 19.764L209.393 20.988C210.725 22.86 211.517 24.408 212.597 26.676L215.693 25.308C214.901 23.652 213.425 21.276 212.417 19.764ZM217.385 18L214.325 19.296C215.657 21.096 216.521 22.5 217.673 24.768L220.769 23.4C219.905 21.816 218.501 19.44 217.385 18ZM196.793 19.044L194.165 23.004C196.541 24.336 200.321 26.784 202.301 28.188L205.001 24.192C203.129 22.896 199.169 20.34 196.793 19.044ZM190.133 44.604L192.833 49.356C196.001 48.78 201.185 46.98 204.821 44.892C210.725 41.508 215.801 36.936 219.149 31.968L216.377 27.072C213.497 32.22 208.493 37.152 202.373 40.572C198.449 42.732 194.129 43.92 190.133 44.604ZM191.249 27.252L188.621 31.248C191.069 32.508 194.777 34.956 196.829 36.36L199.457 32.328C197.621 31.032 193.661 28.548 191.249 27.252Z" fill="white"/>
<g clip-path="url(#clip0_234_92)">
<path d="M49.5189 22.766C44.1133 22.766 38.7077 22.766 33.3021 22.7736C32.9652 22.7736 32.8529 22.6979 32.8678 22.3497C32.8978 21.7215 32.8828 21.0932 32.8753 20.465C32.8678 20.2531 32.9352 20.1622 33.1523 20.1925C33.2497 20.2076 33.3545 20.1925 33.4518 20.1925C43.0052 20.1925 52.5586 20.1925 62.112 20.2001C62.4639 20.2001 62.5837 20.1319 62.5612 19.7535C62.5238 19.1252 62.5462 18.497 62.5537 17.8687C62.5537 17.6719 62.4938 17.5887 62.2992 17.6114C62.2393 17.619 62.1719 17.6114 62.112 17.6114C52.3564 17.6114 42.6084 17.6114 32.8529 17.6114C31.7897 17.6114 30.8763 17.9369 30.1426 18.7316C29.611 19.3069 29.349 19.9881 29.3564 20.7905C29.3639 25.6651 29.3564 30.5397 29.3639 35.4142C29.3639 35.7397 29.3115 35.876 28.9447 35.8608C28.2334 35.8306 27.5221 35.8457 26.8184 35.8533C26.5938 35.8608 26.5189 35.8078 26.5189 35.5656C26.5264 30.5548 26.4814 25.544 26.5488 20.5331C26.5788 18.2245 27.9115 16.6577 29.903 15.6585C30.8239 15.1892 31.8122 15 32.8304 15C42.9079 15 52.9854 15 63.0553 15C63.9762 15 64.7399 15.3028 65.1891 16.1808C65.3314 16.4533 65.3763 16.7485 65.3763 17.0588C65.3763 17.9671 65.3913 18.8755 65.3688 19.7762C65.3538 20.1395 65.4811 20.2228 65.8031 20.2001C66.1999 20.1774 66.5967 20.1849 67.001 20.2001C68.0042 20.2228 69 21.063 68.9925 22.2665C68.9551 28.0494 68.9551 33.8247 68.9401 39.6076C68.9326 41.8859 68.8652 44.1643 68.9176 46.4426C68.9476 47.8656 67.862 48.6756 66.6865 48.6756C63.7217 48.668 60.7568 48.6756 57.792 48.6756C54.2282 48.6756 50.6644 48.6756 47.1081 48.6756C46.5465 48.6756 46.6289 48.7437 46.6214 48.1684C46.6139 47.6386 46.6139 47.1087 46.6214 46.5789C46.6289 45.9885 46.5391 46.0717 47.1455 46.0717C53.1126 46.0717 59.0798 46.0717 65.0394 46.0642C65.3688 46.0642 65.7956 46.2156 66.0052 45.9885C66.1999 45.7841 66.0651 45.3678 66.0651 45.0423C66.0951 37.7758 66.1175 30.5094 66.1475 23.2429C66.1475 22.8644 66.0651 22.766 65.6833 22.766C60.3001 22.7736 54.9095 22.766 49.5189 22.766Z" fill="white"/>
<path d="M33.7588 37.2233C39.7559 37.2233 44.54 42.0676 44.5326 48.1381C44.5326 54.1859 39.7259 59 33.6989 59C27.7542 59 22.9925 54.1254 22.9925 48.0473C23 42.0676 27.8216 37.2233 33.7588 37.2233ZM33.7738 39.4032C28.9596 39.3805 25.2087 43.2181 25.1413 48.1154C25.0814 52.8159 29.027 56.8276 33.7438 56.8427C38.4307 56.8579 42.4287 52.884 42.3988 48.123C42.3613 43.2711 38.6178 39.4259 33.7738 39.4032Z" fill="white"/>
<path d="M61.1462 32.4622C61.528 32.4622 61.9173 32.4698 62.2992 32.4622C62.4938 32.4547 62.5537 32.5304 62.5537 32.7272C62.5462 33.4311 62.5462 34.135 62.5537 34.839C62.5537 35.0131 62.5013 35.0812 62.3216 35.0812C61.528 35.0736 60.7344 35.0736 59.9408 35.0812C59.7835 35.0812 59.7236 35.0206 59.7236 34.8617C59.7311 34.1426 59.7311 33.4311 59.7236 32.712C59.7236 32.5304 59.7835 32.4698 59.9632 32.4698C60.3525 32.4698 60.7493 32.4622 61.1462 32.4622Z" fill="white"/>
<path d="M34.8294 45.1786C34.8294 45.6781 34.8444 46.1853 34.822 46.6848C34.8145 46.9573 34.9118 47.0255 35.1664 47.0255C36.1397 47.0103 37.1055 47.0255 38.0788 47.0179C38.543 47.0179 38.8724 47.2374 39.0521 47.6461C39.2393 48.07 39.1719 48.4863 38.8724 48.8497C38.6703 49.0994 38.3858 49.1827 38.0713 49.1827C37.113 49.1751 36.1546 49.1903 35.1963 49.1751C34.9118 49.1676 34.807 49.2433 34.8145 49.5536C34.8369 50.5225 34.8145 51.4913 34.822 52.4602C34.822 52.9143 34.6273 53.2474 34.2455 53.4366C33.8487 53.6334 33.4518 53.5956 33.085 53.3306C32.793 53.1187 32.6882 52.8311 32.6957 52.4829C32.6957 51.514 32.6807 50.5452 32.7031 49.5763C32.7106 49.2508 32.6058 49.1751 32.2988 49.1827C31.363 49.1978 30.4346 49.1903 29.4987 49.1903C28.8174 49.1903 28.3757 48.7513 28.3757 48.1079C28.3757 47.4418 28.7949 47.0406 29.4987 47.033C30.4421 47.033 31.3929 47.0255 32.3363 47.0406C32.6133 47.0482 32.7031 46.9725 32.6957 46.6848C32.6807 45.7008 32.6957 44.7244 32.6882 43.7404C32.6882 43.3014 32.8828 42.9835 33.2497 42.7867C33.624 42.5899 34.0209 42.6126 34.3802 42.8548C34.6797 43.0516 34.8145 43.3317 34.8145 43.6799C34.8369 44.1719 34.8294 44.679 34.8294 45.1786Z" fill="white"/>
</g>
<defs>
<clipPath id="clip0_234_92">
<rect width="46" height="44" fill="white" transform="translate(23 15)"/>
</clipPath>
</defs>
</svg>
