<svg width="729" height="164" viewBox="0 0 729 164" fill="none" xmlns="http://www.w3.org/2000/svg">
<path d="M219.741 74.4729C219.381 71.152 217.864 68.5663 215.19 66.7158C212.541 64.8652 209.096 63.9399 204.853 63.9399C201.871 63.9399 199.313 64.3836 197.178 65.2708C195.044 66.1581 193.412 67.3622 192.28 68.8832C191.149 70.4042 190.571 72.1407 190.545 74.0927C190.545 75.7151 190.918 77.122 191.663 78.3135C192.435 79.5049 193.476 80.5189 194.787 81.3555C196.099 82.1667 197.551 82.8511 199.145 83.4088C200.74 83.9665 202.347 84.4355 203.966 84.8158L211.371 86.641C214.354 87.3254 217.221 88.2507 219.972 89.4168C222.749 90.5829 225.23 92.0532 227.416 93.8278C229.627 95.6023 231.375 97.7443 232.661 100.254C233.946 102.764 234.589 105.704 234.589 109.076C234.589 113.639 233.407 117.657 231.041 121.13C228.676 124.577 225.256 127.277 220.782 129.229C216.334 131.156 210.947 132.119 204.622 132.119C198.477 132.119 193.142 131.181 188.616 129.305C184.117 127.429 180.594 124.692 178.049 121.092C175.529 117.492 174.166 113.107 173.961 107.935H188.038C188.244 110.648 189.092 112.904 190.583 114.704C192.075 116.503 194.016 117.847 196.407 118.734C198.824 119.622 201.524 120.065 204.506 120.065C207.618 120.065 210.343 119.609 212.683 118.696C215.048 117.758 216.9 116.465 218.237 114.818C219.574 113.145 220.255 111.193 220.281 108.962C220.255 106.934 219.651 105.261 218.468 103.942C217.285 102.599 215.627 101.483 213.493 100.596C211.384 99.6836 208.916 98.8724 206.088 98.1626L197.101 95.8811C190.596 94.2334 185.454 91.7364 181.674 88.3901C177.92 85.0186 176.043 80.5443 176.043 74.9672C176.043 70.3789 177.303 66.3609 179.823 62.9132C182.368 59.4656 185.827 56.7912 190.198 54.8899C194.569 52.9633 199.518 52 205.046 52C210.652 52 215.562 52.9633 219.779 54.8899C224.022 56.7912 227.351 59.4403 229.768 62.8372C232.185 66.2088 233.432 70.0873 233.509 74.4729H219.741Z" fill="#1CB3C8"/>
<path d="M272.569 132.081C266.784 132.081 261.77 130.826 257.528 128.317C253.285 125.807 249.994 122.296 247.654 117.784C245.34 113.271 244.183 107.998 244.183 101.965C244.183 95.9318 245.34 90.6463 247.654 86.1086C249.994 81.571 253.285 78.0473 257.528 75.5376C261.77 73.028 266.784 71.7731 272.569 71.7731C278.354 71.7731 283.368 73.028 287.61 75.5376C291.853 78.0473 295.131 81.571 297.445 86.1086C299.785 90.6463 300.955 95.9318 300.955 101.965C300.955 107.998 299.785 113.271 297.445 117.784C295.131 122.296 291.853 125.807 287.61 128.317C283.368 130.826 278.354 132.081 272.569 132.081ZM272.646 121.054C275.783 121.054 278.406 120.205 280.514 118.506C282.622 116.782 284.191 114.475 285.219 111.586C286.273 108.696 286.8 105.476 286.8 101.927C286.8 98.3527 286.273 95.1206 285.219 92.2307C284.191 89.3154 282.622 86.9959 280.514 85.2721C278.406 83.5483 275.783 82.6864 272.646 82.6864C269.432 82.6864 266.758 83.5483 264.624 85.2721C262.516 86.9959 260.934 89.3154 259.88 92.2307C258.852 95.1206 258.337 98.3527 258.337 101.927C258.337 105.476 258.852 108.696 259.88 111.586C260.934 114.475 262.516 116.782 264.624 118.506C266.758 120.205 269.432 121.054 272.646 121.054Z" fill="#1CB3C8"/>
<path d="M312.805 130.94V72.5336H326.342V82.2681H326.959C328.039 78.8965 329.89 76.2981 332.513 74.4729C335.161 72.6224 338.182 71.6971 341.576 71.6971C342.348 71.6971 343.209 71.7351 344.161 71.8111C345.138 71.8618 345.947 71.9506 346.59 72.0773V84.7397C345.999 84.5369 345.06 84.3595 343.775 84.2074C342.515 84.0299 341.294 83.9412 340.111 83.9412C337.565 83.9412 335.277 84.4862 333.246 85.5763C331.24 86.641 329.659 88.124 328.502 90.0252C327.345 91.9265 326.766 94.1193 326.766 96.6036V130.94H312.805Z" fill="#1CB3C8"/>
<path d="M371.852 132.119C368.098 132.119 364.717 131.46 361.709 130.142C358.726 128.798 356.361 126.821 354.612 124.21C352.89 121.599 352.028 118.379 352.028 114.551C352.028 111.256 352.645 108.531 353.88 106.376C355.114 104.221 356.798 102.498 358.932 101.205C361.066 99.9118 363.47 98.9358 366.144 98.2767C368.844 97.5923 371.634 97.0979 374.513 96.7937C377.984 96.4388 380.8 96.1219 382.96 95.8431C385.12 95.5389 386.688 95.0826 387.665 94.4742C388.668 93.8404 389.169 92.8644 389.169 91.5462V91.3181C389.169 88.4535 388.308 86.2354 386.585 84.6637C384.862 83.092 382.381 82.3061 379.142 82.3061C375.722 82.3061 373.009 83.0413 371.004 84.5116C369.024 85.9819 367.687 87.7184 366.993 89.721L353.957 87.8958C354.985 84.3468 356.682 81.3808 359.048 78.9979C361.413 76.5896 364.306 74.7898 367.725 73.5983C371.145 72.3815 374.925 71.7731 379.064 71.7731C381.918 71.7731 384.76 72.1027 387.588 72.7618C390.416 73.4209 393 74.5109 395.34 76.0319C397.68 77.5276 399.557 79.5683 400.971 82.154C402.411 84.7397 403.131 87.9719 403.131 91.8504V130.94H389.709V122.917H389.246C388.398 124.539 387.202 126.06 385.659 127.48C384.142 128.874 382.227 130.002 379.913 130.864C377.625 131.701 374.938 132.119 371.852 132.119ZM375.478 122.004C378.28 122.004 380.71 121.459 382.767 120.369C384.824 119.254 386.405 117.784 387.511 115.958C388.642 114.133 389.208 112.143 389.208 109.988V103.106C388.771 103.461 388.025 103.79 386.971 104.095C385.942 104.399 384.785 104.665 383.5 104.893C382.214 105.121 380.941 105.324 379.681 105.501C378.422 105.679 377.329 105.831 376.403 105.958C374.321 106.237 372.456 106.693 370.811 107.327C369.165 107.96 367.867 108.848 366.916 109.988C365.964 111.104 365.489 112.549 365.489 114.323C365.489 116.858 366.427 118.772 368.304 120.065C370.181 121.358 372.572 122.004 375.478 122.004Z" fill="#1CB3C8"/>
<path d="M428.894 130.94L406.602 53.0647H421.99L436.222 110.293H436.955L452.15 53.0647H466.151L481.385 110.331H482.079L496.311 53.0647H511.699L489.407 130.94H475.291L459.478 76.2981H458.861L443.01 130.94H428.894Z" fill="#1CB3C8"/>
<path d="M532.005 132.119C528.251 132.119 524.87 131.46 521.862 130.142C518.879 128.798 516.514 126.821 514.765 124.21C513.043 121.599 512.181 118.379 512.181 114.551C512.181 111.256 512.798 108.531 514.033 106.376C515.267 104.221 516.951 102.498 519.085 101.205C521.219 99.9118 523.623 98.9358 526.297 98.2767C528.997 97.5923 531.787 97.0979 534.666 96.7937C538.137 96.4388 540.953 96.1219 543.113 95.8431C545.272 95.5389 546.841 95.0826 547.818 94.4742C548.821 93.8404 549.322 92.8644 549.322 91.5462V91.3181C549.322 88.4535 548.461 86.2354 546.738 84.6637C545.015 83.092 542.534 82.3061 539.294 82.3061C535.875 82.3061 533.162 83.0413 531.157 84.5116C529.177 85.9819 527.84 87.7184 527.146 89.721L514.11 87.8958C515.138 84.3468 516.835 81.3808 519.201 78.9979C521.566 76.5896 524.459 74.7898 527.878 73.5983C531.298 72.3815 535.078 71.7731 539.217 71.7731C542.071 71.7731 544.912 72.1027 547.741 72.7618C550.569 73.4209 553.153 74.5109 555.493 76.0319C557.833 77.5276 559.71 79.5683 561.124 82.154C562.564 84.7397 563.284 87.9719 563.284 91.8504V130.94H549.862V122.917H549.399C548.551 124.539 547.355 126.06 545.812 127.48C544.295 128.874 542.38 130.002 540.066 130.864C537.777 131.701 535.091 132.119 532.005 132.119ZM535.63 122.004C538.433 122.004 540.863 121.459 542.92 120.369C544.977 119.254 546.558 117.784 547.664 115.958C548.795 114.133 549.361 112.143 549.361 109.988V103.106C548.924 103.461 548.178 103.79 547.124 104.095C546.095 104.399 544.938 104.665 543.653 104.893C542.367 105.121 541.094 105.324 539.834 105.501C538.575 105.679 537.482 105.831 536.556 105.958C534.473 106.237 532.609 106.693 530.964 107.327C529.318 107.96 528.02 108.848 527.068 109.988C526.117 111.104 525.641 112.549 525.641 114.323C525.641 116.858 526.58 118.772 528.457 120.065C530.334 121.358 532.725 122.004 535.63 122.004Z" fill="#1CB3C8"/>
<path d="M591.284 53.0647V130.94H577.322V53.0647H591.284Z" fill="#1CB3C8"/>
<path d="M619.602 53.0647V130.94H605.641V53.0647H619.602Z" fill="#1CB3C8"/>
<path d="M660.185 132.081C654.246 132.081 649.116 130.864 644.797 128.431C640.503 125.972 637.199 122.499 634.885 118.012C632.571 113.499 631.414 108.189 631.414 102.079C631.414 96.0712 632.571 90.7984 634.885 86.2607C637.225 81.6977 640.49 78.1487 644.681 75.6137C648.872 73.0533 653.796 71.7731 659.453 71.7731C663.104 71.7731 666.549 72.3562 669.789 73.5223C673.054 74.663 675.934 76.4375 678.428 78.8458C680.948 81.2541 682.927 84.3214 684.367 88.0479C685.807 91.749 686.527 96.16 686.527 101.281V105.501H637.97V96.2233H673.144C673.118 93.5869 672.54 91.242 671.409 89.1887C670.277 87.11 668.696 85.4749 666.665 84.2834C664.659 83.092 662.319 82.4962 659.645 82.4962C656.791 82.4962 654.284 83.1807 652.125 84.5496C649.965 85.8932 648.281 87.6677 647.072 89.8731C645.89 92.0532 645.285 94.4488 645.26 97.0599V105.159C645.26 108.556 645.889 111.471 647.149 113.905C648.409 116.313 650.171 118.164 652.433 119.457C654.696 120.724 657.344 121.358 660.378 121.358C662.409 121.358 664.248 121.079 665.893 120.521C667.539 119.938 668.966 119.089 670.174 117.974C671.383 116.858 672.296 115.477 672.913 113.829L685.949 115.274C685.126 118.671 683.557 121.637 681.243 124.172C678.955 126.682 676.024 128.634 672.45 130.028C668.876 131.397 664.788 132.081 660.185 132.081Z" fill="#1CB3C8"/>
<path d="M727.92 72.5336V83.1807H693.865V72.5336H727.92ZM702.272 58.5403H716.234V113.373C716.234 115.223 716.517 116.643 717.082 117.632C717.674 118.595 718.445 119.254 719.397 119.609C720.348 119.964 721.402 120.141 722.559 120.141C723.433 120.141 724.23 120.078 724.95 119.951C725.696 119.824 726.262 119.71 726.647 119.609L729 130.37C728.254 130.623 727.187 130.902 725.799 131.207C724.436 131.511 722.765 131.688 720.785 131.739C717.288 131.84 714.138 131.321 711.336 130.18C708.533 129.014 706.309 127.214 704.664 124.78C703.044 122.347 702.247 119.305 702.272 115.654V58.5403Z" fill="#1CB3C8"/>
<path d="M115.169 147.921C102.303 147.921 89.421 147.937 76.5548 147.905C72.1215 147.889 68.1861 146.508 65.1021 143.199C63.1906 141.175 62.1787 138.749 62.1787 135.938C62.1787 120.904 62.2108 105.853 62.1626 90.8184C62.1465 85.8551 64.5399 82.4658 68.7001 80.1528C71.1256 78.8035 73.7759 78.2253 76.5548 78.2253C99.8135 78.2253 123.072 78.2253 146.331 78.2253C148.018 78.2253 149.495 78.675 150.62 80.0082C151.198 80.6829 151.471 81.4699 151.455 82.3695C151.439 84.3452 151.471 86.3369 151.439 88.3126C151.423 88.8588 151.6 88.9712 152.114 88.9873C153.495 89.0194 154.892 88.8106 156.274 89.1318C158.571 89.678 159.776 91.1879 159.776 93.5491C159.711 110.222 159.663 126.895 159.599 143.568C159.583 145.994 157.752 147.761 155.053 147.921C154.764 147.937 154.459 147.937 154.17 147.937C141.175 147.921 128.164 147.921 115.169 147.921ZM113.981 142.524C126.719 142.524 139.456 142.524 152.194 142.54C152.869 142.54 153.109 142.428 153.109 141.673C153.109 136.453 153.174 131.232 153.19 126.028C153.222 115.78 153.222 105.532 153.286 95.2839C153.286 94.4647 153.093 94.288 152.29 94.288C127.538 94.304 102.785 94.304 78.0325 94.304C77.8398 94.304 77.6631 94.288 77.4703 94.304C76.9563 94.3683 76.7796 94.1916 76.7957 93.6455C76.8278 92.4086 76.8599 91.1879 76.7957 89.951C76.7475 89.164 76.9403 88.9391 77.7755 88.9391C94.6092 88.9712 111.443 88.9552 128.277 88.9552C133.609 88.9552 138.926 88.9391 144.259 88.9712C144.853 88.9712 145.062 88.8267 145.046 88.2163C144.998 87.0116 145.03 85.8069 145.03 84.6022C145.03 83.5742 145.03 83.5742 143.986 83.5742C121.771 83.5742 99.5565 83.5742 77.3418 83.5742C76.619 83.5742 75.8962 83.6063 75.1734 83.7027C72.2339 84.1042 68.6358 86.1603 68.6358 90.5775C68.668 105.596 68.6519 120.599 68.6519 135.617C68.6519 137.577 69.3265 139.215 70.8204 140.5C72.523 141.962 74.5309 142.524 76.7475 142.524C89.1479 142.524 101.564 142.524 113.981 142.524Z" fill="#1DB3C8"/>
<path d="M45.7947 110.19C41.9718 110.19 38.1328 110.238 34.3099 110.19C22.2629 110.029 11.8061 101.195 9.62155 89.3567C7.51734 77.9522 13.0268 66.7565 23.3391 61.5522C23.9655 61.247 24.592 60.9418 25.2505 60.717C25.8609 60.5242 26.0537 60.219 26.0376 59.5765C25.9091 54.2919 26.9692 49.2482 29.2823 44.5097C34.2296 34.4545 42.1806 28.0294 53.1675 25.7324C64.1544 23.4355 74.0008 26.1501 82.5622 33.3943C86.8509 37.0245 89.935 41.5542 91.9267 46.7906C92.248 47.6259 92.5371 47.8668 93.5009 47.7704C101.018 46.9994 107.973 48.7021 114.222 52.9426C121.627 57.9702 126.044 64.9896 127.634 73.808C127.779 74.5951 128.212 75.591 127.779 76.1371C127.377 76.6511 126.317 76.2656 125.546 76.2978C124.454 76.3299 123.345 76.2817 122.253 76.3138C121.803 76.3299 121.627 76.2174 121.562 75.7195C120.036 64.6041 111.828 56.0909 100.777 54.1955C97.0829 53.5691 93.4206 53.8261 89.8225 54.838C87.7665 55.4163 85.7105 55.9785 83.6384 56.5407C81.8394 57.0225 80.1367 56.107 79.6548 54.3883C79.173 52.6214 80.1689 50.983 82.0161 50.469C83.1726 50.1477 84.3291 49.7943 85.5017 49.5373C86.0799 49.4088 86.1763 49.2161 85.9514 48.6699C82.0321 39.6106 75.3019 33.828 65.6321 31.8362C50.8223 28.8004 36.655 37.8919 33.0409 52.5732C31.8523 57.3759 31.8523 62.1626 33.6834 66.8368C33.9565 67.5436 34.2938 68.2022 34.6472 68.8607C35.4985 70.4349 35.0167 72.25 33.5389 73.1334C32.029 74.0169 30.246 73.5992 29.2662 72.0733C28.3346 70.6276 27.7403 69.0214 27.2584 67.3669C27.1138 66.869 26.9692 66.7405 26.4392 66.9814C19.0664 70.4509 14.5689 78.5144 15.5166 86.5618C16.5285 95.1072 22.4396 101.677 30.8404 103.524C32.2217 103.829 33.6353 103.942 35.0648 103.942C42.7428 103.926 50.4208 103.958 58.1148 103.91C58.9661 103.91 59.1267 104.15 59.0946 104.938C59.0304 106.463 59.0464 107.989 59.0946 109.515C59.1107 110.094 58.9179 110.222 58.3718 110.222C54.2116 110.19 50.0031 110.19 45.7947 110.19Z" fill="#1DB3C8"/>
<path d="M141.962 120.502C142.813 120.502 143.665 120.518 144.532 120.502C144.982 120.486 145.207 120.583 145.191 121.113C145.158 122.526 145.175 123.94 145.191 125.353C145.191 125.771 145.062 125.915 144.644 125.915C142.829 125.899 141.014 125.899 139.199 125.915C138.846 125.915 138.653 125.835 138.653 125.434C138.669 123.972 138.669 122.494 138.653 121.032C138.653 120.583 138.862 120.502 139.247 120.518C140.147 120.518 141.046 120.502 141.962 120.502Z" fill="#1DB3C8"/>
</svg>
