<svg width="249" height="70" viewBox="0 0 249 70" fill="none" xmlns="http://www.w3.org/2000/svg">
<rect width="249" height="70" rx="35" fill="#1CB3C8"/>
<path d="M94.344 34.572L90.276 35.976C94.956 44.76 102.588 49.584 114.72 51.312C115.332 50.088 116.52 48.108 117.492 47.1C105.9 45.804 98.052 41.664 94.344 34.572ZM86.748 30.648V34.86H109.824V30.648H86.748ZM84.984 22.188V26.472H115.836V22.188H84.984ZM98.124 17.436V32.556H102.624V17.436H98.124ZM108.42 30.648V31.44C105.144 41.232 95.604 45.48 83.508 47.064C84.336 48.036 85.452 50.088 85.848 51.24C98.34 49.152 108.816 43.896 113.136 32.232L110.112 30.504L109.356 30.648H108.42ZM139.272 18.372C138.264 27.588 135.852 39.324 133.62 46.812L137.724 47.676C139.992 40.26 142.548 28.884 144.024 19.128L139.272 18.372ZM130.164 45.948L131.136 50.484C136.212 49.8 143.304 48.864 149.892 47.856L149.748 43.824C142.62 44.688 134.952 45.552 130.164 45.948ZM143.34 35.004C146.004 40.224 148.704 46.992 149.532 51.204L153.816 49.584C152.772 45.3 149.892 38.712 147.192 33.672L143.34 35.004ZM119.904 24.312V28.344H133.872V24.312H119.904ZM125.016 17.4V46.488C125.016 47.028 124.836 47.208 124.296 47.244C123.756 47.244 121.992 47.28 120.372 47.208C120.912 48.324 121.452 50.124 121.632 51.24C124.368 51.24 126.24 51.132 127.572 50.448C128.832 49.8 129.264 48.684 129.264 46.488V17.4H125.016ZM119.364 35.58L120.264 39.828C124.224 38.964 129.444 37.812 134.304 36.696L133.98 32.88C128.688 33.924 123.036 35.004 119.364 35.58ZM163.824 22.296L158.28 22.224C158.532 23.34 158.568 24.888 158.568 25.86C158.568 28.056 158.604 32.304 158.964 35.616C159.972 45.264 163.392 48.792 167.388 48.792C170.268 48.792 172.5 46.632 174.912 40.332L171.276 35.976C170.592 38.82 169.188 43.068 167.46 43.068C165.192 43.068 164.112 39.504 163.608 34.32C163.392 31.692 163.392 29.028 163.392 26.688C163.392 25.68 163.572 23.556 163.824 22.296ZM181.824 23.088L177.252 24.6C181.176 29.064 183.12 37.776 183.66 43.608L188.412 41.736C188.016 36.228 185.244 27.228 181.824 23.088Z" fill="white"/>
<path d="M47.5 54.375C58.4767 54.375 67.375 45.4767 67.375 34.5C67.375 23.5233 58.4767 14.625 47.5 14.625C36.5233 14.625 27.625 23.5233 27.625 34.5C27.625 45.4767 36.5233 54.375 47.5 54.375Z" stroke="white" stroke-width="5" stroke-linecap="round" stroke-linejoin="round"/>
<path d="M40.875 34.5H54.125M40.875 41.125H54.125M40.875 25.6667L47.5 35.6042M54.125 25.6667L47.5 35.6042V45.5417" stroke="white" stroke-width="4" stroke-linecap="round" stroke-linejoin="round"/>
</svg>
